<?xml version="1.0" encoding="UTF-8"?>
<svg class="qa-svg" preserveAspectRatio="xMidYMid meet" viewBox="-40 -76 1032 152" xmlns="http://www.w3.org/2000/svg">
  <defs>
    <filter height="140%" id="qa-shadow" width="140%" x="-20%" y="-20%">
      <feGaussianBlur in="SourceAlpha" stdDeviation="2.5"/>
      <feOffset dx="0" dy="3" result="off"/>
      <feComponentTransfer>
        <feFuncA slope="0.25" type="linear"/>
      </feComponentTransfer>
      <feMerge>
        <feMergeNode/>
        <feMergeNode in="SourceGraphic"/>
      </feMerge>
    </filter>
    <marker id="qa-arrow" markerHeight="8" markerWidth="8" orient="auto-start-reverse" refX="9" refY="5" viewBox="0 0 10 10">
      <path d="M 0 0 L 10 5 L 0 10 Z" fill="#334155"/>
    </marker>
    <marker id="qa-triangle" markerHeight="12" markerWidth="12" orient="auto-start-reverse" refX="11" refY="6" viewBox="0 0 12 12">
      <path d="M 0 0 L 11 6 L 0 12 Z" fill="#ffffff" stroke="#334155" stroke-linejoin="round" stroke-width="1.6"/>
    </marker>
    <marker id="qa-diamond" markerHeight="10" markerWidth="14" orient="auto-start-reverse" refX="1" refY="5" viewBox="0 0 14 10">
      <path d="M 0 5 L 7 0 L 14 5 L 7 10 Z" fill="#334155" stroke="#334155" stroke-linejoin="round" stroke-width="1.2"/>
    </marker>
    <marker id="qa-odiamond" markerHeight="10" markerWidth="14" orient="auto-start-reverse" refX="1" refY="5" viewBox="0 0 14 10">
      <path d="M 0 5 L 7 0 L 14 5 L 7 10 Z" fill="#ffffff" stroke="#334155" stroke-linejoin="round" stroke-width="1.4"/>
    </marker>
    <marker id="qa-circle" markerHeight="8" markerWidth="8" orient="auto-start-reverse" refX="5" refY="5" viewBox="0 0 10 10">
      <circle cx="5" cy="5" fill="#334155" r="4" stroke="#334155"/>
    </marker>
    <marker id="qa-cross" markerHeight="10" markerWidth="10" orient="auto-start-reverse" refX="5" refY="5" viewBox="0 0 10 10">
      <path d="M 1 1 L 9 9 M 9 1 L 1 9" fill="none" stroke="#334155" stroke-linecap="round" stroke-width="1.8"/>
    </marker>
    <linearGradient id="qa-g-1e293b-0f172a" x1="0" x2="0" y1="0" y2="1">
      <stop offset="0%" stop-color="#303a4b"/>
      <stop offset="100%" stop-color="#0f172a"/>
    </linearGradient>
    <linearGradient id="qa-g-e0e7ff-a5b4fc" x1="0" x2="0" y1="0" y2="1">
      <stop offset="0%" stop-color="#e2e9ff"/>
      <stop offset="100%" stop-color="#a5b4fc"/>
    </linearGradient>
    <linearGradient id="qa-g-e0e7ff-a5b4fc" x1="0" x2="0" y1="0" y2="1">
      <stop offset="0%" stop-color="#e2e9ff"/>
      <stop offset="100%" stop-color="#a5b4fc"/>
    </linearGradient>
    <linearGradient id="qa-g-e0e7ff-a5b4fc" x1="0" x2="0" y1="0" y2="1">
      <stop offset="0%" stop-color="#e2e9ff"/>
      <stop offset="100%" stop-color="#a5b4fc"/>
    </linearGradient>
    <linearGradient id="qa-g-1e293b-0f172a" x1="0" x2="0" y1="0" y2="1">
      <stop offset="0%" stop-color="#303a4b"/>
      <stop offset="100%" stop-color="#0f172a"/>
    </linearGradient>
  </defs>
  <g class="qa-edges">
    <g class="qa-edge">
      <path d="M 24 0 L 33 0 Q 42 0 51 0 L 72 0 Q 74 0 74 0 L 74 0 Q 74 0 76 0 L 97 0 Q 106 0 115 0 L 124 0" fill="none" marker-end="url(#qa-arrow)" stroke="#475569" stroke-linecap="round" stroke-linejoin="round" stroke-width="1.8"/>
    </g>
    <g class="qa-edge">
      <path d="M 292 -24 L 301 -24 Q 310 -24 310 -33 L 310 -48 Q 310 -58 320 -58 L 900 -58 Q 910 -58 910 -48 L 910 -19 Q 910 -10 919 -10 L 928 -10" fill="none" marker-end="url(#qa-arrow)" stroke="#475569" stroke-linecap="round" stroke-linejoin="round" stroke-width="1.8"/>
    </g>
    <g class="qa-edge">
      <path d="M 292 24 L 301 24 Q 310 24 319 24 L 332 24 Q 342 24 342 14 L 342 3 Q 342 -7 352 -7 L 365 -7 Q 374 -7 383 -7 L 392 -7" fill="none" marker-end="url(#qa-arrow)" stroke="#475569" stroke-linecap="round" stroke-linejoin="round" stroke-width="1.8"/>
    </g>
    <g class="qa-edge">
      <path d="M 392 7 L 383 7 Q 374 7 365 7 L 344 7 Q 342 7 342 7 L 342 7 Q 342 7 340 7 L 319 7 Q 310 7 301 7 L 292 7" fill="none" marker-end="url(#qa-arrow)" stroke="#475569" stroke-linecap="round" stroke-linejoin="round" stroke-width="1.8"/>
    </g>
    <g class="qa-edge">
      <path d="M 560 0 L 569 0 Q 578 0 587 0 L 608 0 Q 610 0 610 0 L 610 0 Q 610 0 612 0 L 633 0 Q 642 0 651 0 L 660 0" fill="none" marker-end="url(#qa-arrow)" stroke="#475569" stroke-linecap="round" stroke-linejoin="round" stroke-width="1.8"/>
    </g>
    <g class="qa-edge">
      <path d="M 828 0 L 837 0 Q 846 0 855 0 L 873 0 Q 878 0 878 5 L 878 5 Q 878 10 883 10 L 901 10 Q 910 10 919 10 L 928 10" fill="none" marker-end="url(#qa-arrow)" stroke="#475569" stroke-linecap="round" stroke-linejoin="round" stroke-width="1.8"/>
    </g>
  </g>
  <g class="qa-node" data-id="__start__" transform="translate(0,-12)">
    <path d="M 0 12 a 12 12 0 1 0 24 0 a 12 12 0 1 0 -24 0 Z" fill="url(#qa-g-1e293b-0f172a)" filter="url(#qa-shadow)" stroke="#000000" stroke-width="1.5"/>
    <text dominant-baseline="middle" fill="#ffffff" font-family="'Inter', system-ui, sans-serif" font-size="13" font-weight="600" pointer-events="none" text-anchor="middle" x="12" y="12"/>
  </g>
  <g class="qa-node" data-id="Still" transform="translate(124,-36)">
    <path d="M 12 0 H 156 A 12 12 0 0 1 168 12 V 60 A 12 12 0 0 1 156 72 H 12 A 12 12 0 0 1 0 60 V 12 A 12 12 0 0 1 12 0 Z" fill="url(#qa-g-e0e7ff-a5b4fc)" filter="url(#qa-shadow)" stroke="#3730a3" stroke-width="1.5"/>
    <text dominant-baseline="middle" fill="#1e293b" font-family="'Inter', system-ui, sans-serif" font-size="13" font-weight="600" pointer-events="none" text-anchor="middle" x="84" y="36">Still</text>
  </g>
  <g class="qa-node" data-id="Moving" transform="translate(392,-36)">
    <path d="M 12 0 H 156 A 12 12 0 0 1 168 12 V 60 A 12 12 0 0 1 156 72 H 12 A 12 12 0 0 1 0 60 V 12 A 12 12 0 0 1 12 0 Z" fill="url(#qa-g-e0e7ff-a5b4fc)" filter="url(#qa-shadow)" stroke="#3730a3" stroke-width="1.5"/>
    <text dominant-baseline="middle" fill="#1e293b" font-family="'Inter', system-ui, sans-serif" font-size="13" font-weight="600" pointer-events="none" text-anchor="middle" x="84" y="36">Moving</text>
  </g>
  <g class="qa-node" data-id="Crash" transform="translate(660,-36)">
    <path d="M 12 0 H 156 A 12 12 0 0 1 168 12 V 60 A 12 12 0 0 1 156 72 H 12 A 12 12 0 0 1 0 60 V 12 A 12 12 0 0 1 12 0 Z" fill="url(#qa-g-e0e7ff-a5b4fc)" filter="url(#qa-shadow)" stroke="#3730a3" stroke-width="1.5"/>
    <text dominant-baseline="middle" fill="#1e293b" font-family="'Inter', system-ui, sans-serif" font-size="13" font-weight="600" pointer-events="none" text-anchor="middle" x="84" y="36">Crash</text>
  </g>
  <g class="qa-node" data-id="__end__" transform="translate(928,-12)">
    <path d="M 0 12 a 12 12 0 1 0 24 0 a 12 12 0 1 0 -24 0 Z" fill="url(#qa-g-1e293b-0f172a)" filter="url(#qa-shadow)" stroke="#000000" stroke-width="1.5"/>
    <path d="M 5.3999999999999995 12 a 6.6000000000000005 6.6000000000000005 0 1 0 13.200000000000001 0 a 6.6000000000000005 6.6000000000000005 0 1 0 -13.200000000000001 0 Z" fill="none" stroke="#ffffff" stroke-linecap="round" stroke-opacity="0.7" stroke-width="1.2"/>
    <text dominant-baseline="middle" fill="#ffffff" font-family="'Inter', system-ui, sans-serif" font-size="13" font-weight="600" pointer-events="none" text-anchor="middle" x="12" y="12"/>
  </g>
</svg>
